<?xml version="1.0" standalone="no"?>
<!DOCTYPE svg PUBLIC "-//W3C//DTD SVG 20010904//EN"
 "http://www.w3.org/TR/2001/REC-SVG-20010904/DTD/svg10.dtd">
<svg version="1.0" xmlns="http://www.w3.org/2000/svg"
 width="129.000000pt" height="114.000000pt" viewBox="0 0 129.000000 114.000000"
 preserveAspectRatio="xMidYMid meet">

<g transform="translate(0.000000,114.000000) scale(0.100000,-0.100000)"
fill="#000000" stroke="none">
<path d="M492 767 c-104 -104 -142 -149 -142 -166 0 -18 39 -64 147 -173 l147
-148 25 25 26 25 -135 135 -135 135 134 134 135 135 -25 20 c-13 11 -26 20
-29 21 -3 0 -69 -64 -148 -143z"/>
<path d="M710 885 c7 -8 18 -15 24 -15 37 0 117 -55 161 -111 50 -63 67 -72
41 -20 -29 56 -80 104 -141 133 -68 32 -105 38 -85 13z"/>
<path d="M514 860 c-51 -29 -87 -68 -118 -127 -21 -41 2 -36 27 6 17 28 83 93
126 124 43 29 17 27 -35 -3z"/>
<path d="M797 762 l-28 -29 65 -60 c37 -33 66 -64 66 -69 0 -5 -28 -37 -62
-71 l-62 -63 27 -27 27 -28 80 80 c58 58 80 86 80 105 0 19 -22 48 -83 108
l-83 82 -27 -28z"/>
<path d="M242 650 c0 -14 2 -19 5 -12 2 6 2 18 0 25 -3 6 -5 1 -5 -13z"/>
<path d="M1092 600 c0 -14 2 -19 5 -12 2 6 2 18 0 25 -3 6 -5 1 -5 -13z"/>
<path d="M242 545 c0 -16 2 -22 5 -12 2 9 2 23 0 30 -3 6 -5 -1 -5 -18z"/>
<path d="M1081 514 c0 -11 3 -14 6 -6 3 7 2 16 -1 19 -3 4 -6 -2 -5 -13z"/>
<path d="M380 505 c0 -36 94 -145 149 -175 46 -24 42 -2 -7 32 -28 21 -69 62
-92 92 -38 52 -50 64 -50 51z"/>
<path d="M904 453 c-50 -62 -111 -109 -155 -118 -15 -4 -33 -13 -40 -21 -11
-13 -8 -14 17 -9 60 14 134 57 168 98 33 41 71 107 62 107 -3 0 -26 -26 -52
-57z"/>
</g>
</svg>
